<svg width="204" height="104" viewBox="0 0 204 104" fill="none" xmlns="http://www.w3.org/2000/svg">
<path d="M-125 14.2361C-125 6.37372 -118.626 0 -110.764 0H151.715C180.216 0 203.321 23.1048 203.321 51.6059C203.321 80.1071 180.216 103.212 151.715 103.212H-110.764C-118.626 103.212 -125 96.8382 -125 88.9758V14.2361Z" fill="black"/>
<path d="M-54.232 41.8962V64.6162H-56.44V53.9922H-69.912V64.6162H-72.152V41.8962H-69.912V52.0082H-56.44V41.8962H-54.232ZM-35.791 62.8242V64.6162H-48.687V47.0802H-36.047V48.8722H-46.703V54.8562H-37.391V56.5202H-46.703V62.8242H-35.791ZM-31.687 64.6162V47.0802H-19.143V48.8722H-29.703V54.9522H-20.743V56.6802H-29.703V64.6162H-31.687ZM-15.2807 64.6162V47.1122H-13.2967V64.6162H-15.2807ZM-7.90575 64.6162V47.0802H-5.92175V62.8242H4.67025V64.6162H-7.90575ZM18.5998 48.8722H11.8478V64.6162H9.86375V48.8722H3.04775V47.0802H18.5998V48.8722ZM22.0318 64.6162V47.1122H24.0158V64.6162H22.0318Z" fill="white"/>
</svg>
